<?xml version="1.0" encoding="utf-8"?>
<!-- Generator: Adobe Illustrator 16.0.0, SVG Export Plug-In . SVG Version: 6.00 Build 0)  -->
<!DOCTYPE svg PUBLIC "-//W3C//DTD SVG 1.1//EN" "http://www.w3.org/Graphics/SVG/1.1/DTD/svg11.dtd">
<svg version="1.1" xmlns="http://www.w3.org/2000/svg" xmlns:xlink="http://www.w3.org/1999/xlink" x="0px" y="0px" width="710px"
	 height="668px" viewBox="0 0 710 668" style="enable-background:new 0 0 710 668;" xml:space="preserve">
<style type="text/css">
<![CDATA[
	.st0{fill:#46701D;}
	.st1{fill:#4A6E39;}
	.st2{fill:#4C672C;}
	.st3{fill:#1B240A;}
	.st4{fill:#89AE23;}
	.st5{fill:#253217;}
	.st6{fill:#284118;}
	.st7{fill:#324A0A;}
	.st8{
	fill:#6EC3BD;
	filter: url(#drop-shadow);
	}
	.st9{fill:#456026;}
]]>
</style>
<defs>
	<filter id="drop-shadow">
			<feGaussianBlur in="SourceAlpha" stdDeviation="9"/>
			<feOffset dx="0" dy="15" result="offsetblur"/>
			<feFlood flood-color="rgba(0,0,0,0.4)"/>
			<feComposite in2="offsetblur" operator="in"/>
			<feMerge>
				<feMergeNode/>
				<feMergeNode in="SourceGraphic"/>
			</feMerge>
		</filter>
</defs>
<g id="Layer_2">
	<path class="st8" d="M585,485c0,55.229-44.771,100-100,100H114c-55.229,0-100-44.771-100-100V112C14,56.771,58.771,12,114,12h371
		c55.229,0,100,44.771,100,100V485z"/>
</g>
<g id="Layer_3">
	<circle class="st6" cx="214.2" cy="203" r="47.6"/>
	<circle class="st4" cx="253.8" cy="266.8" r="54"/>
	<circle class="st5" cx="295.2" cy="171.4" r="45.2"/>
	<circle class="st6" cx="340" cy="250.4" r="43.2"/>
	<circle class="st2" cx="424.6" cy="266.6" r="50"/>
	<circle class="st0" cx="187.4" cy="329.2" r="46"/>
	<circle class="st1" cx="233.2" cy="416.4" r="41.6"/>
	<circle class="st9" cx="268.8" cy="350.4" r="42"/>
	<circle class="st6" cx="304" cy="429.2" r="28.8"/>
	<circle class="st0" cx="340.4" cy="325" r="36.4"/>
	<circle class="st3" cx="444.6" cy="341.4" r="25"/>
	<circle class="st7" cx="382.8" cy="406.801" r="56.4"/>
	<circle class="st1" cx="376.8" cy="191.4" r="42"/>
</g>
</svg>
