<?xml version="1.0" encoding="UTF-8"?>
<svg width="294px" height="76px" viewBox="0 0 294 76" version="1.1" xmlns="http://www.w3.org/2000/svg" xmlns:xlink="http://www.w3.org/1999/xlink">
    <!-- Generator: Sketch 45 (43475) - http://www.bohemiancoding.com/sketch -->
    <title>Funsize logo</title>
    <desc>Created with Sketch.</desc>
    <defs></defs>
    <g id="Design-WWW" stroke="none" stroke-width="1" fill="none" fill-rule="evenodd">
        <g id="Case-Study:-OpenTable" transform="translate(-11.000000, -107.000000)" fill="#FFFFFF">
            <g id="Logo" transform="translate(0.000000, 91.000000)">
                <g id="Funsize-logo" transform="translate(11.750000, 16.071970)">
                    <path d="M168.154678,74.8198858 L168.154678,24.3078036 L186.165816,24.3078036 L186.165816,74.8198858 L168.154678,74.8198858 Z M192.58114,74.8203978 L192.58114,63.9517624 L218.044544,37.0393776 L193.720356,37.0393776 L193.720356,24.3083156 L240.19526,24.3083156 L240.19526,36.0038428 L215.353945,62.0893358 L241.023432,62.0893358 L241.023432,74.8203978 L192.58114,74.8203978 Z M260.17161,52.9807255 C260.308572,56.0169289 261.292906,58.3798427 263.122052,60.0707469 C264.948638,61.7616511 267.278272,62.6064632 270.109672,62.6064632 C272.385545,62.6064632 274.333733,62.1917372 275.956796,61.3635654 C277.578579,60.5353935 279.07748,59.2592153 280.4599,57.5337506 L291.534618,66.228915 C290.431243,67.6100547 289.170425,68.8683127 287.757284,70.007529 C286.341584,71.1454653 284.719801,72.1643598 282.891935,73.0603726 C281.062789,73.9576655 278.958439,74.6488753 276.577605,75.1301622 C274.196771,75.6127291 271.521532,75.8559326 268.55701,75.8559326 C264.967839,75.8559326 261.602671,75.3016847 258.464066,74.1995889 C255.322901,73.0962131 252.579822,71.4565097 250.234828,69.2817586 C247.888554,67.1095675 246.024848,64.3831286 244.646268,61.1050017 C243.263848,57.8281548 242.575198,54.0149803 242.575198,49.6680382 C242.575198,45.459338 243.230568,41.7152845 244.541307,38.4371576 C245.852045,35.1603107 247.647911,32.381391 249.925064,30.1042384 C252.200936,27.8270859 254.909455,26.1029012 258.05062,24.9291244 C261.189225,23.7566277 264.586393,23.1690993 268.245966,23.1690993 C275.766073,23.1690993 281.752719,25.6011341 286.204622,30.4664836 C290.653966,35.3318332 292.914478,42.8365805 292.984879,52.9807255 L260.17161,52.9807255 Z M276.007996,43.3537079 C275.801914,40.6618294 274.989102,38.5408391 273.577242,36.9881769 C272.161541,35.4342346 270.452717,34.6585436 268.453328,34.6585436 C266.382259,34.6585436 264.571033,35.4534349 263.018371,37.0393776 C261.465709,38.6278803 260.550495,40.7322304 260.275292,43.3537079 L276.007996,43.3537079 Z M186.146104,8.96268815 C186.146104,13.9125189 182.133246,17.9253763 177.183415,17.9253763 C172.233585,17.9253763 168.220727,13.9125189 168.220727,8.96268815 C168.220727,4.01285738 172.233585,0 177.183415,0 C182.133246,0 186.146104,4.01285738 186.146104,8.96268815 Z M59.3686109,74.8203978 L59.3686109,24.3083156 L75.1025959,24.3083156 L76.0331692,28.6552577 C77.6895129,27.206277 79.8117832,25.9300988 82.3987002,24.825443 C84.9868972,23.7233472 87.8336579,23.1690993 90.9389823,23.1690993 C96.6657842,23.1690993 101.28921,24.7921625 104.809261,28.0344488 C108.328031,31.2792952 110.088056,36.2816068 110.088056,43.0426634 L110.088056,74.8203978 L91.9732371,74.8203978 L91.9732371,45.113733 C91.9732371,42.4218546 91.3869887,40.3354247 90.214492,38.8506035 C89.0394352,37.3683423 87.349811,36.6259317 85.1417794,36.6259317 C83.5545567,36.6259317 82.1222163,36.9536164 80.846038,37.6089857 C79.5685798,38.2656351 78.4472837,39.0413262 77.4821499,39.9386191 L77.4821499,74.8203978 L59.3686109,74.8203978 Z M34.9413817,74.8203978 L34.1144898,70.5771371 C32.3186242,72.1643598 30.1797136,73.4405381 27.6964781,74.4056719 C25.2119625,75.3720857 22.4164026,75.8559326 19.3123582,75.8559326 C13.3090724,75.8559326 8.61524525,74.2175092 5.23471691,70.9381023 C1.85290856,67.6612554 0.163284398,62.7447051 0.163284398,56.1884514 L0.163284398,24.3083156 L18.2768234,24.3083156 L18.2768234,54.1186618 C18.2768234,56.6722983 18.7760305,58.6908872 19.7770048,60.1744284 C20.7766991,61.6579696 22.4509631,62.3991002 24.7972366,62.3991002 C26.5918223,62.3991002 28.1432045,62.0893358 29.4552232,61.4672469 C30.765962,60.846438 31.8360573,60.1577881 32.6642291,59.3974573 L32.6642291,24.3083156 L50.7790481,24.3083156 L50.7790481,74.8203978 L34.9413817,74.8203978 Z M125.303378,58.3620505 C126.544995,59.8814322 128.320381,61.2446517 130.633374,62.4504289 C132.945087,63.6587662 135.617765,64.2616548 138.655249,64.2616548 C139.551261,64.2616548 140.430634,64.2283744 141.294646,64.1592534 C142.157379,64.0914124 142.93307,63.9173299 143.62428,63.642126 C144.312929,63.366922 144.865897,63.0033968 145.279343,62.5541104 C145.694069,62.106104 145.901432,61.5032154 145.901432,60.7428845 C145.901432,59.4321458 145.313904,58.4145312 144.141407,57.6900409 C142.96763,56.9642705 140.725038,56.2244199 137.413631,55.464089 C134.376147,54.7754392 131.617708,53.9818278 129.133192,53.083255 C126.648677,52.1872422 124.543047,51.0825864 122.818862,49.7718476 C121.092117,48.4611089 119.764738,46.8905265 118.834165,45.0613803 C117.902312,43.2335142 117.436385,41.0766833 117.436385,38.5921678 C117.436385,36.1076523 118.005993,33.917541 119.14393,32.0192738 C120.283146,30.1222867 121.869089,28.5184238 123.905598,27.206405 C125.940827,25.8956663 128.356221,24.8946919 131.150501,24.2034821 C133.946061,23.5161122 137.000185,23.1692273 140.311592,23.1692273 C143.416917,23.1692273 146.142076,23.3945105 148.488349,23.8425169 C150.833343,24.2918033 152.922333,24.8946919 154.750199,25.6537428 C156.579345,26.4140737 158.130727,27.275526 159.409465,28.2419398 C160.685644,29.2083536 161.772379,30.2438884 162.669672,31.3472642 L152.525527,39.5240211 C151.35175,38.2811234 149.764527,37.1611073 147.763859,36.160133 C145.76191,35.1604387 143.450197,34.6586716 140.82872,34.6586716 C139.241497,34.6586716 137.775876,34.8660345 136.430577,35.2794804 C135.085278,35.6942064 134.411988,36.5569387 134.411988,37.8676774 C134.411988,38.4206453 134.514389,38.9019322 134.721752,39.3166582 C134.929115,39.7301041 135.377122,40.1281898 136.068332,40.5070752 C136.756981,40.8872406 137.740035,41.2674061 139.017494,41.6450114 C140.293672,42.0251769 141.967936,42.4578231 144.037726,42.93911 C147.14305,43.6303198 149.868209,44.4239312 152.214482,45.319944 C154.559476,46.2185168 156.544784,47.3218926 158.166568,48.6326314 C159.787071,49.9446501 160.995408,51.4960323 161.789019,53.290618 C162.582631,55.0852036 162.980716,57.2241142 162.980716,59.7073497 C162.980716,62.6053111 162.341987,65.0744664 161.064529,67.1084155 C159.787071,69.1449246 158.079526,70.8012683 155.941896,72.0774466 C153.801705,73.3549048 151.300549,74.3021184 148.437148,74.9229273 C145.572467,75.5450162 142.588745,75.8560606 139.48342,75.8560606 C133.272772,75.8560606 128.150138,74.9574878 124.111681,73.1641821 C120.075783,71.3708765 117.0895,69.1628449 115.159233,66.5400874 L125.303378,58.3620505 Z" id="Combined-Shape"></path>
                </g>
            </g>
        </g>
    </g>
</svg>